<svg width="24" height="24" viewBox="0 0 24 24" fill="none" xmlns="http://www.w3.org/2000/svg">
  <g transform="translate(-112, -56)">
    <g xmlns="http://www.w3.org/2000/svg">
<path d="M119.05 63.0503C118.151 63.9496 117.547 65.0328 117.24 66.1788C115.368 66.7238 114 68.4522 114 70.5C114 72.9853 116.014 75 118.5 75H130.5C130.659 75 130.815 74.9894 130.969 74.9689M122.766 61.109C124.942 60.7211 127.267 61.3682 128.95 63.0503C130.325 64.4261 131.009 66.2322 131 68.0354C132.696 68.278 134 69.7367 134 71.5C134 71.7611 133.971 72.0155 133.917 72.2603" stroke="black" stroke-width="2" stroke-linecap="round" stroke-linejoin="round" />
<path d="M116 60L132 76" stroke="black" stroke-width="2" stroke-linecap="round" />
</g>

  </g>
</svg>